<svg xmlns="http://www.w3.org/2000/svg" xmlns:xlink="http://www.w3.org/1999/xlink" width="16" height="17" viewBox="0 0 16 17">
    <defs>
        <path id="m88iott49a" d="M16 11.018l-.001.57c-.001.16-.003.32-.007.481-.01.349-.03.701-.094 1.046-.063.35-.167.676-.331.995-.161.312-.371.599-.622.847s-.54.456-.857.615c-.322.162-.651.265-1.006.328-.349.062-.705.082-1.058.092-.679.008-.871.008-1.064.008H5.04c-.74-.002-.902-.004-1.064-.008-.353-.01-.709-.03-1.058-.092-.354-.063-.684-.166-1.006-.328-.316-.16-.606-.367-.857-.615-.25-.248-.46-.535-.622-.847-.164-.319-.268-.645-.331-.995-.063-.345-.084-.697-.093-1.046-.005-.16-.007-.32-.008-.48L0 11.018V4.982l.001-.57c.001-.16.003-.32.008-.481.01-.349.03-.701.093-1.046.063-.35.167-.676.331-.995.161-.313.371-.599.622-.847s.54-.456.857-.615C2.234.266 2.564.163 2.918.1c.35-.062.705-.082 1.058-.092C4.656 0 4.848 0 5.04 0H10.802 8.75h2.21c.74.002.902.004 1.064.008.353.01.709.03 1.058.092.355.063.684.166 1.006.328.316.16.606.367.857.615.25.248.461.534.622.847.164.319.268.644.331.995.063.345.084.697.094 1.046.004.16.006.32.007.48l.001.571v6.036z"/>
    </defs>
    <g fill="none" fill-rule="evenodd">
        <g transform="translate(0.000000, 1.000000)">
            <mask id="3xndc6w4ab" fill="#fff">
                <use xlink:href="#m88iott49a"/>
            </mask>
            <path fill="#D80C18" d="M0 0H16V16H0z" mask="url(#3xndc6w4ab)"/>
            <g fill="#FFF" mask="url(#3xndc6w4ab)">
                <path d="M8.91 4.921L3.643 10.56c-.034.036-.095.008-.089-.042l.588-4.776H1.704c-.045 0-.068-.054-.038-.087L6.933.017c.034-.037.095-.009.089.041l-.588 4.776h2.437c.046 0 .07.054.039.087z" transform="translate(2.711864, 2.711864)"/>
            </g>
        </g>
    </g>
</svg>
